# xmcd CD database file
#
# Track frame offsets:
#	150
#	12884
#	20735
#	34362
#	43541
#	56364
#	67148
#	80553
#	93384
#	104160
#	114653
#	125807
#	137389
#	147752
#	157102
#	168751
#	182552
#	192774
#	206853
#	220483
#	237343
#	253098
#	265864
#	280425
#
# Disc length: 3941 seconds
#
# Revision: 2
# Processed by: cddbd v1.5.2PL0 Copyright (c) Steve Scherf et al.
# Submitted via: CDex 1.51
#
DISCID=700f6318
DTITLE=Shirley Horn - Travelin' Light and Horn Of Plenty
DYEAR=2012
DGENRE=Jazz
TTITLE0=Travelin' Light
TTITLE1=Sunday In New York
TTITLE2=I Could Have Told You
TTITLE3=Big City
TTITLE4=I Want To Be With You
TTITLE5=Some Of My Best Friends Are The Blues
TTITLE6=Someone You've Loved
TTITLE7=Don't Be On The Outside
TTITLE8=You're Blase
TTITLE9=Yes, I Know When I've Had It
TTITLE10=Confession
TTITLE11=And I Love Him
TTITLE12=On The Street Where You Live
TTITLE13=The Great City
TTITLE14=That Old Black Magic
TTITLE15=Mack The Knife
TTITLE16=Come Dance With Me
TTITLE17=Let Me Love You
TTITLE18=After You've Gone
TTITLE19=Wouldn't It Be Loverly
TTITLE20=Go Away Little Boy
TTITLE21=I'm In The Mood For Love
TTITLE22=The Good Life
TTITLE23=In The Wee Small Hours
EXTD=YEAR: 2012
EXTT0=
EXTT1=
EXTT2=
EXTT3=
EXTT4=
EXTT5=
EXTT6=
EXTT7=
EXTT8=
EXTT9=
EXTT10=
EXTT11=
EXTT12=
EXTT13=
EXTT14=
EXTT15=
EXTT16=
EXTT17=
EXTT18=
EXTT19=
EXTT20=
EXTT21=
EXTT22=
EXTT23=
PLAYORDER=
